<svg xmlns="http://www.w3.org/2000/svg" width="51" height="726" fill="none" viewBox="0 0 51 726">
  <path fill="#4E8FDC" fill-rule="evenodd" d="M.196 202.339c.14 7.402.306 13.876.368 14.386.062.511.214-2.622.339-6.961.225-7.867.226-7.855.337 4.177.062 6.636.24 16.452.395 21.812.196 6.743.232 3.31.116-11.138-.265-33.022-.5-66.931-.493-71.291.003-2.434-.136-3.775-.355-3.426-.237.377-.361-7.744-.361-23.668 0-17.208.113-24.061.392-23.619.246.392.36-.189.307-1.57-.047-1.205.011-2.819.129-3.584.118-.766.387-7.657.6-15.315.212-7.657.528-15.489.703-17.403.175-1.915.183-3.48.02-3.48-.41 0-.649 2.457-1.622 16.706-.122 1.787-.39 5.129-.595 7.426-.441 4.949-.662 96.85-.28 116.948zm.38 282.625c.2 4.362.217 4.237.27-2.089.056-6.662-.097-8.675-.352-4.641-.073 1.15-.036 4.177.081 6.73zm.177 10.209c.062 1.021.216 5.511.344 9.978.127 4.466.35 8.122.497 8.122.146 0 .201-1.357.122-3.017-.11-2.313-.054-2.692.238-1.624.289 1.058.372.39.343-2.785-.034-3.809-.061-3.931-.312-1.392l-.276 2.784-.042-3.403c-.024-1.871.102-3.542.279-3.713.183-.175.205-3.711.051-8.198-.29-8.51-.43-8.362-.437.464-.003 3.063-.084 4.525-.181 3.248-.167-2.192-.897-5.16-.788-3.202.027.485.1 1.717.162 2.738zm.055-320.022c.07 3.17.071 8.6.002 12.066-.07 3.468-.127.875-.128-5.762 0-6.636.056-9.473.126-6.304zm-.027-12.955c.1.638.1 1.682 0 2.32-.1.638-.182.116-.182-1.16s.082-1.799.182-1.16zm.36-70.54c.1.637.1 1.682 0 2.32-.1.638-.181.116-.181-1.16s.081-1.799.181-1.16zM1.14 85.14c.099.628.105 1.881.014 2.784-.092.904-.173.39-.18-1.142-.007-1.532.067-2.27.166-1.642zm.373 397.27c.09-.893.09-2.355 0-3.248-.09-.893-.165-.163-.165 1.624 0 1.787.074 2.517.165 1.624zm-.01-8.817c.1-.639.1-1.683 0-2.321-.1-.638-.182-.116-.182 1.16 0 1.277.082 1.798.182 1.161zm.596 177.69c.168.268.272 5.14.232 10.827-.074 10.321.457 28.396.923 31.439.156 1.018.579 1.535 1.155 1.413.98-.209 1.015-.353 1.352-5.572.276-4.271.86-4.616.786-.464-.048 2.764.03 2.994.94 2.749.868-.234.992.055.997 2.32.007 3.246.328 4.39 1.303 4.646.634.166.807-.436.996-3.481.306-4.927.805-4.661 1.033.553.18 4.118 1.48 9.238 2.096 8.258.153-.243.386.812.517 2.344.205 2.408.307 2.607.75 1.466.282-.725.516-1.872.519-2.546.004-.925.087-.892.34.131.233.952.366-.133.444-3.628.11-4.926.126-4.986 1.284-5.069.645-.048 1.173.228 1.173.61 0 .383.324.696.721.696.535 0 .734.661.77 2.553.044 2.225.07 2.281.207.44.2-2.691 1.182-7.585 1.185-5.91.001.708.227 1.037.517.751.765-.755 1.178 1.082 1.615 7.191.39 5.465.756 7.819.756 4.876 0-.851.243-1.547.54-1.547.422 0 .542 1.237.542 5.569 0 6.005.689 7.872.77 2.088.03-2.154.109-2.685.206-1.392.086 1.149.296 2.088.468 2.088.17 0 .415.842.542 1.871.126 1.028.375 1.639.551 1.358.177-.281.475.862.663 2.539.296 2.635.348 2.103.385-3.911.045-7.148.425-7.414.899-.629.21 3.008.33 3.375.784 2.403.432-.922.446-1.302.07-1.942-.365-.619-.31-1.106.242-2.19.651-1.278.74-1.218 1.065.714.303 1.804.382 1.372.552-2.997.177-4.582.242-4.903.637-3.133.241 1.084.547 3.799.68 6.033.41 6.944.84 7.344.873.812l.03-6.033 1.153 7.89 1.153 7.889.18-4.641.18-4.64.488 5.468c.342 3.821.584 5.079.807 4.177.175-.711.332-2.127.349-3.148.03-1.844.032-1.844.31-.017.202 1.335.364.187.59-4.177.283-5.451.324-5.667.441-2.303.071 2.041.281 4.108.466 4.594.209.547.348-3.333.365-10.21.022-8.566.111-10.51.391-8.539.21 1.48.632 2.553 1.005 2.553.52 0 .77 1.622 1.318 8.573.372 4.715.735 7.786.807 6.826.105-1.398.195-1.488.45-.451.234.952.321.681.33-1.026.005-1.276.162-2.935.346-3.687.373-1.518.464-1.124.883 3.817.114 1.348.437 2.677.718 2.954.428.423.484-1.18.345-9.875-.123-7.672-.063-10.017.23-8.988.333 1.174.386 1.101.338-.464-.097-3.102.018-3.781.394-2.32.243.946.274-.389.1-4.177-.322-6.933-.326-6.579.231-22.276.341-9.619.397-23.721.215-54.297-.152-25.381-.1-49.175.134-61.723.771-41.354.826-45.468.588-44.876-.133.331-.33 4.925-.437 10.209-.108 5.283-.34 10.004-.517 10.489-.441 1.208-.407-78.714.046-106.901.26-16.169.768-138.295.752-180.783-.004-9.479-.46-50.822-.581-52.719-.102-1.566-.027-2.374.187-2.034.196.311.356.148.356-.363 0-.51-.163-1.186-.361-1.501-.473-.752-.468-4.177.007-4.177.407 0 .432-21.926.042-37.938-.179-7.331-.127-9.736.219-10.077.25-.247.453-1.054.453-1.796 0-.741-.162-1.089-.36-.774-.199.316-.389-.182-.423-1.105-.034-.924-.097-2.306-.142-3.072-.044-.765-.1-3.689-.124-6.497-.027-3.11-.161-4.629-.344-3.887-.297 1.204-.573-5.379-1.004-23.958-.217-9.34-.81-13.566-.904-6.45-.03 2.271-.092 4.548-.139 5.058-.046.51-.124 4.896-.174 9.746l-.091 8.817-.281-6.033c-.154-3.318-.331-10.139-.393-15.157-.062-5.019-.238-9.325-.392-9.569-.153-.244-.278-1.279-.278-2.3 0-1.02-.141-1.632-.314-1.358-.174.278-.181 2.262-.016 4.464.334 4.444.418 8.68.16 8.013-.348-.894-1.636-20.124-1.438-21.455.116-.778-.04-1.623-.356-1.936-.398-.394-.578-1.976-.62-5.456l-.059-4.902-.213 5.105c-.168 4.016-.259 4.572-.428 2.606-.118-1.375-.095-4.507.052-6.961.148-2.454.235-4.557.195-4.674-.04-.116-.442.455-.893 1.268-.544.98-.7 1.79-.462 2.4.238.612.232 1.907-.019 3.838-.671 5.186-.822 4.367-.69-3.745.091-5.659.013-7.776-.271-7.325-.246.392-.412-.189-.432-1.507-.029-1.908-.75 7.213-1.15 14.564-.084 1.531-.18-.348-.212-4.177-.033-3.829-.217-7.588-.41-8.353-.29-1.155-.35-1.076-.36.464-.006 1.02-.182 2.483-.392 3.248-.278 1.019-.32.208-.152-3.014.297-5.76-.017-6.977-1.117-4.32-.487 1.177-.864 1.589-.864.944 0-.63-.162-.886-.36-.57-.199.315-.364 2.323-.367 4.463-.003 2.139-.175 4.516-.382 5.282-.27 1.001-.31.026-.14-3.48.239-4.96-.242-6.835-.714-2.785-.237 2.036-.252 2.043-.59.232-.274-1.471-.314-1.177-.195 1.416.173 3.737-.604 7.661-.997 5.033a26.018 26.018 0 01-.223-3.163c0-.917-.243-2.186-.54-2.822-.425-.908-.542-.91-.542-.014 0 .633-.24.903-.54.606-.348-.343-.55.036-.567 1.06-.021 1.324-.076 1.28-.321-.26-.275-1.724-.324-1.672-.696.756-.22 1.437-.4 3.213-.4 3.945 0 .732-.163 1.332-.361 1.332-.199 0-.377-2.401-.396-5.337l-.035-5.337-.555 3.48c-.602 3.775-1.31 4.459-1.863 1.8-.193-.925-.465-6.355-.606-12.066-.14-5.712-.38-10.385-.534-10.385-.154 0-.442 1.15-.642 2.553-.303 2.136-.367 1.455-.39-4.177-.017-3.819-.185-6.73-.39-6.73-.198 0-.36.861-.36 1.912 0 1.05-.155 1.664-.345 1.362-.19-.301-.254-1.162-.142-1.91.111-.75.05-1.363-.136-1.363s-.52 1.984-.74 4.409c-.342 3.742-.385 2.305-.288-9.514l.115-13.922-.659 12.066c-1.154 21.113-1.124 20.736-1.43 18.099-.25-2.147-.274-2.168-.307-.287-.05 2.83-.672 3.548-.863.997-.087-1.17-.179-.387-.206 1.765-.027 2.127-.21 4.006-.405 4.177-.195.17-.488 5.112-.65 10.983-.289 10.455-.304 10.593-.738 6.757-.282-2.5-.414-9.01-.363-17.982.074-12.984.026-14.167-.62-15.38-.616-1.157-.714-2.712-.82-12.88C12.771 2.344 12.643 0 12.236 0c-.282 0-.512.363-.512.807 0 1.305-1.087 17.144-1.298 18.916-.4 3.354-.868 1.438-.908-3.712-.041-5.28-.045-5.297-.34-1.624-.164 2.041-.32 7.053-.346 11.137-.047 7.273-.537 17.137-.715 14.387-.17-2.62-.668 6.953-.695 13.352-.024 5.577-.141 6.665-.929 8.541l-.901 2.15-.033-3.9-.032-3.9-.355 3.173c-.195 1.746-.276 3.938-.181 4.873.095.935.037 1.7-.128 1.7s-.375.73-.466 1.624c-.09.892-.204-.256-.251-2.553l-.087-4.177-.274 4.177C2.892 78.623 2.4 175.705 3.065 206.98c.19 8.933.349 20.489.353 25.679.007 6.661.142 9.575.46 9.907.34.355.347.662.03 1.245-.356.654-.765 19.928-.46 21.643.298 1.675.259 246.175-.042 262.669-.2 10.976-.428 23.506-.505 27.845-.077 4.339-.225 17.254-.328 28.7-.103 11.446-.29 25.02-.413 30.165-.36 14.876-.395 35.921-.062 36.451zM1.87 180.237c.105-.67.092-1.471-.028-1.779-.12-.308-.205.24-.19 1.218.018 1.081.103 1.301.218.561zm.361 25.06c.104-.669.091-1.47-.028-1.778-.12-.309-.205.239-.19 1.217.017 1.082.103 1.302.218.561zm0-7.425c.104-.67.091-1.471-.028-1.779-.12-.308-.205.24-.19 1.218.017 1.081.103 1.301.218.561zm.73 297.998c.086-1.15.086-3.028 0-4.177-.086-1.149-.157-.209-.157 2.088s.07 3.238.157 2.089zm1.425-187.971c.098.629.104 1.882.013 2.785-.092.903-.173.389-.18-1.143-.007-1.531.068-2.27.167-1.642zm-.02-238.036c.12.309.134 1.11.03 1.779-.116.74-.201.52-.219-.56-.015-.979.07-1.527.19-1.218zm.641 138.311c.123-.316.242 2.731.265 6.772.022 4.042.123 17.999.224 31.016.101 13.018.309 59.095.462 102.394.153 43.3.389 81.003.524 83.787.248 5.114-.038 11.235-.474 10.113-.25-.646-.317-9.432-.446-58.694-.05-18.802-.216-30.861-.425-30.861-.19 0-.256-.588-.15-1.306.297-1.985.247-32.894-.089-55.312-.328-21.918-.247-86.992.11-87.909zm-.317-24.243c.26.667.291 16.577.034 17.237-.118.304-.214-3.555-.214-8.575 0-5.019.08-8.918.18-8.662zm.037-3.616c.12.308.133 1.109.029 1.778-.115.741-.2.521-.218-.561-.015-.978.07-1.526.19-1.217zm.398 70.509c.087-1.155.083-2.825-.007-3.713-.09-.887-.16.058-.157 2.1.004 2.042.078 2.768.164 1.613zm.016-126.77c.148-.236.27 5.344.27 12.398 0 7.054-.122 13.139-.27 13.522-.149.383-.27-5.195-.27-12.397s.121-13.287.27-13.523zm.09-4.785c.423 2.534.423 3.248 0 3.248-.198 0-.35-1.148-.335-2.552.022-2.262.06-2.341.335-.696zm.246 169.562c.105-.669.092-1.47-.028-1.778-.12-.308-.205.239-.19 1.218.018 1.081.103 1.301.218.56zm.016-5.527c.08-1.668.078-4.174-.004-5.569-.083-1.395-.148-.03-.146 3.033.002 3.063.07 4.204.15 2.536zm.841 187.361c.16.669.201 1.594.09 2.055-.11.462-.332.293-.493-.375-.16-.668-.2-1.593-.09-2.055.11-.461.333-.292.493.375zm-.303-16.795c.155 0 .263 3.028.24 6.729-.032 4.995-.113 6.012-.312 3.945-.345-3.563-.297-10.674.072-10.674zm-.25-9.281c.385 0 .914 5.011.677 6.424-.193 1.157-.302.978-.52-.855-.335-2.835-.413-5.569-.157-5.569zm.553 30.197c.187.298.337 3.754.334 7.68-.003 3.926-.124 6.65-.27 6.053-.404-1.652-.463-14.367-.064-13.733zm-.145-296.829c.099.628.105 1.881.013 2.785-.091.903-.172.388-.18-1.143-.006-1.531.068-2.27.167-1.642zm.379-64.954a33.904 33.904 0 010 4.177c-.086 1.148-.157.209-.157-2.088s.07-3.237.157-2.089zm4.795 575.692c.198 0 .36.184.36.409 0 .226-.162.667-.36.983-.198.316-.36.131-.36-.409s.162-.983.36-.983zm13.232 25.234c.104-.67.09-1.471-.029-1.779-.12-.308-.205.24-.19 1.218.018 1.081.104 1.301.219.561zm6.103-659.844c.12.308.133 1.109.029 1.778-.116.74-.201.52-.218-.56-.016-.979.07-1.526.189-1.218zm.864 652.245c.199 0 .36.443.36.983s-.161.725-.36.409c-.198-.316-.36-.757-.36-.983 0-.225.162-.409.36-.409zm5.435-276.166c.628-.999.761.138.165 1.412-.343.732-.55.803-.55.186 0-.542.173-1.262.385-1.598zm.888-58.856c-.132-.552-.392-.762-.576-.468-.193.306-.336-1.826-.336-5.013 0-3.203.167-5.69.396-5.886.218-.187.482-2.301.587-4.7.262-5.973.817-4.612.68 1.668-.083 3.778.013 5.073.375 5.073.613 0 .643 3.397.036 4.027-.262.271-.177.498.201.541.36.04.57.417.47.836-.1.42.133 1.459.52 2.311.825 1.818.955 6.208.184 6.208-.394 0-.467.805-.306 3.373.167 2.647.104 3.275-.293 2.917-.278-.252-.49-1.05-.469-1.774.02-.725-.2-1.888-.49-2.586-.46-1.101-.496-.855-.281 1.882.136 1.732.323 3.845.415 4.695.093.851.015 1.791-.173 2.09-.188.298-.455-1.569-.592-4.15-.139-2.581-.463-5.192-.722-5.802-.386-.91-.373-1.391.072-2.675.298-.861.434-2.017.302-2.567zm-.412-130.915c.296 0 .445 5.677.16 6.129-.164.263-.3-1.009-.3-2.825 0-1.817.063-3.304.14-3.304zm2.172 169.485c.807.798.404 1.966-.583 1.686-1.227-.348-1.237-.371-.587-1.347.33-.496.856-.648 1.17-.339zm-1.354-65.78c.1.628.105 1.881.014 2.784-.092.903-.173.389-.18-1.142-.007-1.532.068-2.271.166-1.642zm.143-31.308c.412 5.952.398 27.114-.018 28.773-.232.923-.337-4.39-.31-15.779.027-11.744.13-15.851.328-12.994zm-.12-19.259c.082 1.404.082 3.7 0 5.104-.084 1.405-.15.256-.15-2.552s.066-3.957.15-2.552zm-.02-8.818c.1.638.1 1.682 0 2.32-.1.638-.182.117-.182-1.16 0-1.276.082-1.798.182-1.16zm0-9.282c.1.638.1 1.682 0 2.321-.1.638-.182.116-.182-1.16 0-1.277.082-1.799.182-1.161zm.298 158.02c.525 0 1.625 3.46 1.615 5.079-.011 1.81-.038 1.8-.7-.242l-.688-2.122-.139 3.979c-.122 3.494-.146 3.329-.201-1.357-.035-2.936.016-5.337.113-5.337zm.041-4.39c.12.309.133 1.11.029 1.779-.115.741-.2.521-.218-.561-.016-.978.07-1.526.19-1.218zm.143-56.869c.199 0 .361-.443.361-.983s-.162-.725-.36-.409c-.2.316-.361.757-.361.983 0 .225.162.409.36.409zM38.633 81.93c.12.308.133 1.109.029 1.778-.115.74-.2.52-.218-.56-.016-.979.07-1.526.19-1.218zm.021-6.981c.1.638.1 1.682 0 2.32-.1.638-.182.116-.182-1.16s.082-1.799.182-1.16zm.34 398.664c.12.308.133 1.109.029 1.779-.115.74-.2.52-.218-.561-.016-.978.07-1.526.19-1.218zm.21-26.027c.236.202.5.921.588 1.599.09.692-.007.965-.222.624-.214-.341-.45.314-.538 1.495-.112 1.497-.172 1.211-.207-.991-.032-2.019.1-2.967.38-2.727zm.294-29.45c.413.338.721.167.721-.402 0-.545.135-.99.3-.99.47 0 .245 3.774-.273 4.597-.358.57-.369 1.185-.047 2.729.227 1.097.306 2.446.173 2.998-.268 1.114-1.52-5.151-1.566-7.834-.023-1.276.146-1.543.692-1.098zm-.361-175.422c.198-.316.36-.131.36.409s-.162.983-.36.983c-.198 0-.36-.184-.36-.409 0-.226.162-.668.36-.983zm-.202-8.818c.088 0 .26.418.382.929.123.51.051.928-.159.928s-.382-.418-.382-.928c0-.511.072-.929.16-.929zm.078-135.76c.099.628.105 1.881.013 2.784-.091.903-.172.389-.18-1.143-.007-1.531.068-2.27.167-1.642zm-.019-5.069c.12.309.133 1.11.029 1.779-.115.74-.2.52-.218-.56-.016-.979.07-1.527.19-1.219zm.504 366.836c.198-.315.36-.131.36.41 0 .54-.162.983-.36.983-.199 0-.361-.184-.361-.41 0-.225.162-.667.36-.983zm-.143-109.735c.12.308.133 1.109.028 1.778-.115.741-.2.521-.218-.56-.015-.979.07-1.526.19-1.218zm0-4.641c.12.308.133 1.109.028 1.778-.115.741-.2.521-.218-.56-.015-.978.07-1.526.19-1.218zm.323-8.605c.298 0 .541-.418.541-.928 0-.511-.203-.927-.45-.926-.335.001-.421-2.037-.335-7.902.07-4.78.255-7.685.466-7.349.191.304.257 1.291.146 2.192-.11.901.044 2.85.344 4.33.484 2.385.484 2.728.007 2.994-.602.336-.739 4.377-.178 5.269.391.622.495 4.449.145 5.35-.35.904-1.227-.337-1.227-1.737 0-.711.243-1.293.541-1.293zm0-85.391c.458.979.541.774.541-1.333 0-1.423.154-2.243.36-1.915.2.315.361 1.453.361 2.53 0 1.076.117 1.658.258 1.293.142-.366.208-4.045.148-8.176-.1-6.712-.047-7.45.493-6.917.398.393.548.2.44-.563-.092-.639-.349-1.057-.572-.929-.223.128-.406-.838-.406-2.144 0-1.346.156-2.127.36-1.801.2.316.362.131.362-.409 0-.541-.163-.983-.361-.983-.6 0-.404-3.472.232-4.1.326-.321.647-.446.713-.275.066.171.165 4.427.219 9.457.072 6.678-.023 9.252-.352 9.535-.248.214-.451 1.213-.451 2.221 0 1.009.162 1.576.36 1.261.21-.335.361.609.361 2.265 0 1.562-.162 2.84-.36 2.84-.2 0-.361 1.545-.361 3.434 0 3.754-.577 3.274-.781-.65-.091-1.745-.367-2.393-1.113-2.614-.608-.18-.992-.853-.992-1.738 0-1.179.1-1.232.541-.289zm.29-92.352c.104-1.021.172.129.153 2.553-.02 2.424-.18 4.409-.354 4.409-.175 0-.208-.888-.075-1.973.186-1.508.129-1.794-.246-1.214-.385.596-.401.473-.078-.58.227-.736.497-2.174.6-3.195zm-.11 116.02c.199.316.361.967.361 1.447 0 .481-.162.874-.36.874-.199 0-.361-.652-.361-1.447 0-.796.162-1.189.36-.874zm.361 98.849c.452-1.799.452-2.784 0-2.784-.198 0-.358.94-.355 2.088.005 1.689.072 1.822.355.696zm.157-87.247c.293 0 .572-1.106.644-2.552.101-2.048.16-1.795.3 1.276.157 3.49.1 3.829-.645 3.829-.452 0-.817-.569-.817-1.276 0-.702.233-1.277.518-1.277zm-.21-28.773c.18 0 .338 1.68.349 3.732.01 2.053-.099 3.543-.243 3.314-.392-.624-.489-7.046-.107-7.046zm.414 289.122c.198-.315.36.078.36.874 0 .795-.162 1.447-.36 1.447-.199 0-.36-.393-.36-.874 0-.48.161-1.131.36-1.447zm.021-184.239c.21 0 .27.464.134 1.032-.136.567-.024 1.396.25 1.841.393.642.364.814-.135.825-.392.009-.63-.687-.63-1.842 0-1.021.171-1.856.381-1.856zm-.111-12.995c.148 0 .27 1.005.27 2.233 0 1.227-.122 2.037-.27 1.8-.149-.236-.27-1.24-.27-2.231 0-.991.121-1.802.27-1.802zm.09-176.814c.198.315.349 1.489.335 2.607-.024 1.96-.036 1.967-.335.177-.427-2.554-.427-3.463 0-2.784zm0-68.22c.198 0 .363-.94.366-2.088.003-1.148.163-2.715.355-3.48.258-1.027.37-.297.426 2.784.042 2.297.14 5.638.218 7.425.079 1.787.19 17.658.249 35.27.058 17.612-.016 29.515-.164 26.453l-.493-10.21c-.474-9.807-.597-21.702-.232-22.283.203-.322.266-1.014.14-1.538s-.026-1.928.222-3.122c.248-1.193.334-2.928.19-3.856-.145-.928-.291-4.688-.326-8.357-.035-3.668-.17-6.941-.3-7.275-.129-.334-.145-2.031-.035-3.772.159-2.519.08-3.166-.389-3.166-.323 0-.588-.627-.588-1.393 0-.765.162-1.392.36-1.392zm.09-27.304c.36-.432.36-.65 0-1.082-.485-.583-.64-8.331-.18-9.061.148-.236.213 1.41.143 3.657-.079 2.554.023 4.089.271 4.089.602 0 .475 4.365-.144 4.977-.658.65-.743-1.795-.09-2.58zm.27 215.256c.199.316.35 1.698.336 3.072-.023 2.23-.059 2.299-.336.641-.43-2.578-.43-4.398 0-3.713zm0-87.247c.199.316.361-.286.361-1.337s-.162-1.911-.36-1.911c-.427 0-.33-1.799.178-3.327.465-1.402 1.287 3.364 1.025 5.945-.101.997-.008 2.094.208 2.437.216.343.392 1.25.392 2.016 0 .765-.175 1.113-.389.774-.269-.428-.311.696-.14 3.658.152 2.594.112 4.276-.101 4.276-.193 0-.447-2.395-.565-5.322-.117-2.928-.383-5.468-.591-5.646-.208-.179-.378-.733-.378-1.23 0-.499.162-.648.36-.333zm-.028-26.537c.177.719.262 2.537.188 4.04-.104 2.104.028 2.842.575 3.209.39.263.708.834.708 1.268 0 1.003-1.174-.077-1.527-1.403-.146-.548-.265-2.667-.265-4.709 0-2.533.102-3.297.321-2.405zm.347 326.797c.43 0 .773 3.589.4 4.182-.163.259-.378-.054-.479-.696-.298-1.9-.262-3.486.079-3.486zm.042-12.066c.199 0 .36.393.36.874 0 .48-.161 1.131-.36 1.447-.198.315-.36-.078-.36-.874 0-.795.162-1.447.36-1.447zm-.04-16.707c.546 0 .662 6.778.16 9.257-.44 2.172-.476 1.916-.478-3.456-.002-3.191.142-5.801.319-5.801zm.14-2.854c.43.115.347 1.388-.118 1.787-.238.204-.368-.13-.288-.743.079-.612.261-1.082.405-1.044zm1.136-8.219c.183-.035.02.709-.361 1.656-.47 1.167-.777 1.391-.952.696-.233-.929.468-2.186 1.313-2.352zm-1.378-7.878c.282-1.889.864-1.904.864-.021 0 .795.152 1.204.338.907.187-.296.315.304.285 1.333-.057 1.925-.934 2.225-1.43.489-.324-1.137-.32-.941-.057-2.708zm.142-364.379c.199 0 .358.732.355 1.624-.004 1.389-.056 1.422-.355.233-.44-1.752-.44-1.857 0-1.857zm.562 354.985c.379 2.374.463 2.501.618.928.145-1.471.187-1.373.221.509.024 1.344-.238 2.779-.62 3.392-.605.974-.66.7-.659-3.257.002-4.28.005-4.294.44-1.572zm.416-12.758c.76-.374.857-.154.68 1.539-.113 1.086-.213 3.644-.221 5.686-.013 3.005-.087 3.399-.388 2.069-.204-.904-.518-1.411-.697-1.126-.18.285-.311-1.338-.294-3.606.028-3.616.142-4.18.92-4.562zm-.053-27.273c.512-.965.563-1.491.228-2.353-.6-1.546-.54-3.524.11-3.524.421 0 .535 1.179.512 5.337-.015 2.936-.11 4.815-.21 4.177-.428-2.729-.843-.786-.843 3.945 0 5.521.583 7.006.82 2.088.091-1.876.168-1.019.204 2.266.032 2.964-.114 5.556-.334 5.906-.283.449-.283.906 0 1.632.215.555.392 1.636.392 2.401 0 1.03-.106 1.121-.405.351-.223-.572-.639-.81-.925-.527-.44.434-.497-1.107-.365-9.972.13-8.799.262-10.686.816-11.727zm-.113-20.722c.403-.008.327 6.292-.084 6.945-.213.34-.32-.925-.27-3.189.046-2.063.205-3.754.354-3.756zM42 354.557c.187 0 .44.417.562.926.389 1.619.21 26.691-.205 28.775-.211 1.06-.582-10.437-.637-19.723-.034-5.723.086-9.978.28-9.978zm.21-40.703c.38-.979.508.777.691 9.434.188 8.877-.271 18.275-.893 18.275-.317 0-.121-26.879.202-27.709zm.16-33.086c.207 5.988.054 10.49-.307 8.999-.122-.505-.146-3.989-.054-7.743l.167-6.825.193 5.569zm-.348-16.242c.198 0 .36.183.36.409 0 .225-.162.667-.36.983-.199.315-.361.131-.361-.409 0-.541.162-.983.36-.983zm0-20.884c.198.316.36-.078.36-.873 0-.796-.162-1.447-.36-1.447-.199 0-.361.392-.361.873s.162 1.131.36 1.447zm-.115-192.42c.105-.669.091-1.47-.028-1.778-.12-.308-.205.24-.19 1.218.018 1.081.103 1.301.218.56zm.441 217.427c.18.285.242 1.355.139 2.375-.26 2.554-.465 2.324-.465-.52 0-1.306.147-2.141.326-1.855zm-.088-47.979c.1.638.1 1.682 0 2.32-.1.638-.181.116-.181-1.16s.081-1.799.181-1.16zm0-42.695c.1.637.1 1.682 0 2.32-.1.638-.181.116-.181-1.16s.081-1.799.181-1.16zM43.826 58.01c.199-.316.36-.757.36-.983 0-.226-.161-.41-.36-.41-.198 0-.36.444-.36.984s.162.725.36.409zm-.114-24.423c.104-.669.091-1.47-.029-1.778-.12-.308-.205.24-.19 1.218.018 1.081.104 1.301.219.56zm4.533 379.446c.148-.001.24 8.457.203 18.793-.046 13.011-.13 16.368-.27 10.906-.293-11.332-.251-29.697.067-29.699zm.132-9.283c.076 0 .12 1.983.096 4.408-.037 3.792-.078 4.019-.289 1.625-.23-2.602-.12-6.033.193-6.033zm.016 48.032c.1.638.1 1.682 0 2.32-.1.638-.181.116-.181-1.16s.081-1.799.181-1.16zm.77 84.001c.164-.643.308 3.165.323 8.575.016 5.352-.077 9.563-.207 9.357-.353-.562-.458-16.597-.117-17.932zm.32-424.23c.104-.669.091-1.47-.028-1.779-.12-.308-.205.24-.19 1.218.017 1.081.103 1.301.218.561zm.332 67.833c.12.309.133 1.11.029 1.779-.115.74-.2.52-.218-.561-.016-.978.07-1.526.19-1.218zm.773 322.568c.063-5.46.064-14.649 0-20.42-.063-5.771-.115-1.304-.116 9.927 0 11.23.052 15.952.116 10.493zm.17-83.185c.192-.495.286-1.675.208-2.623-.105-1.276-.196-1.042-.35.9-.134 1.694-.084 2.304.142 1.723zm-.193-287.725c.104-.669.091-1.47-.028-1.778-.12-.308-.205.239-.19 1.218.017 1.081.103 1.301.218.56zm.37 280.352c.086-1.155.082-2.826-.008-3.713s-.16.058-.157 2.1c.004 2.042.078 2.767.164 1.613zm0-12.994c.086-1.155.082-2.826-.008-3.713s-.16.057-.157 2.099c.004 2.042.078 2.768.164 1.614zm.006-28.779c.08-1.668.079-4.174-.004-5.569-.082-1.395-.148-.03-.146 3.033.002 3.063.07 4.204.15 2.536zm-.003-13.455c.083-1.41.08-3.499-.005-4.64-.085-1.142-.153.013-.15 2.565.002 2.552.072 3.486.155 2.075zm-.01-121.576c.09-.892.09-2.355 0-3.248-.09-.893-.165-.163-.165 1.624 0 1.787.074 2.517.165 1.624zm-.01-15.314c.1-.639.1-1.683 0-2.321-.1-.638-.182-.116-.182 1.161 0 1.276.082 1.797.182 1.16z" clip-rule="evenodd"/>
</svg>
